<?xml version="1.0" encoding="utf-8"?>
<!-- Generator: Adobe Illustrator 27.9.1, SVG Export Plug-In . SVG Version: 6.00 Build 0)  -->
<svg version="1.1" id="Capa_1" xmlns="http://www.w3.org/2000/svg" xmlns:xlink="http://www.w3.org/1999/xlink" x="0px" y="0px"
	 viewBox="0 0 2000 410.2" style="enable-background:new 0 0 2000 410.2;" xml:space="preserve">
<style type="text/css">
	.st0{fill:#E6E3DD;}
	.st1{fill:#0071FF;}
</style>
<g>
	<path d="M227.1,403.6l-9.5-41.7c-21.5,32.3-52.7,48.4-93.5,48.4c-39.7,0-70.3-13-91.8-39C10.8,345.3,0,306.9,0,256.1
		c0-50.5,10.8-88.6,32.3-114.4c21.5-25.8,52.1-38.7,91.8-38.7c33.8,0,61.2,11.3,82.4,34V0h110.8v403.6H227.1z M110.8,242.1v29.5
		c0,37.9,16,56.8,47.9,56.8c16.3,0,28.6-5.7,36.7-17.2c8.2-11.5,12.2-26.5,12.2-45.1v-18.4c0-18.5-4.1-33.7-12.2-45.4
		c-8.2-11.7-20.4-17.5-36.7-17.5C126.7,184.8,110.8,203.9,110.8,242.1z"/>
	<path d="M604.2,140.8c28.4,25.2,42.6,63.8,42.6,115.8v18.9H426.4c0,21.2,4.7,37.1,14.2,47.9c9.5,10.8,24.4,16.1,44.8,16.1
		c18.6,0,32.2-3.9,40.9-11.7c8.7-7.8,13.1-18.2,13.1-31.2h107.4c0,35.6-13.5,63.5-40.6,83.5c-27.1,20-66.6,30.1-118.6,30.1
		c-54.6,0-96.9-12.7-126.9-38.1c-30.1-25.4-45.1-63.9-45.1-115.5c0-50.5,14.7-88.7,44-114.7c29.3-26,69.8-39,121.3-39
		C534.7,103,575.8,115.6,604.2,140.8z M426.9,223.2h108c0-15.2-4.4-27.3-13.1-36.2c-8.7-8.9-20.9-13.4-36.5-13.4
		C450.5,173.7,431,190.2,426.9,223.2z"/>
	<path d="M648.5,403.6V0h110.8v403.6H648.5z"/>
	<path d="M1029.2,125.5c28.2,15,42.3,39.4,42.3,73.2v114.7c0,6.3,1.5,11.5,4.4,15.6c3,4.1,7.4,6.1,13.4,6.1h20v64
		c-1.1,0.7-4,1.9-8.6,3.6c-4.6,1.7-11.2,3.3-19.8,5c-8.5,1.7-18.4,2.5-29.5,2.5c-21.5,0-39.2-3.3-53.2-9.7
		c-13.9-6.5-23.5-15.5-28.7-27c-14.1,11.1-29.9,20-47.3,26.7c-17.4,6.7-37.9,10-61.2,10c-69,0-103.5-27.5-103.5-82.4
		c0-28.6,7.7-50.4,23.1-65.4c15.4-15,37.6-25.3,66.5-30.9c28.9-5.6,66.8-8.4,113.6-8.4v-14.5c0-11.5-4-20.2-12-26.2
		c-8-5.9-18.3-8.9-30.9-8.9c-11.5,0-21.4,2-29.8,6.1c-8.3,4.1-12.5,10.6-12.5,19.5v2.2H766.5c-0.4-1.8-0.6-4.4-0.6-7.8
		c0-27.8,13.3-49.9,39.8-66.2c26.5-16.3,64.5-24.5,113.8-24.5C964.5,103,1001,110.5,1029.2,125.5z M890.9,285.8
		c-15,6.9-22.5,16.1-22.5,27.6c0,18.6,12.6,27.8,37.9,27.8c14.5,0,27.2-3.9,38.1-11.7c10.9-7.8,16.4-17.4,16.4-28.9v-25.1
		C929.2,275.5,905.9,279,890.9,285.8z"/>
	<path d="M1093.8,75.1V0h110.8v75.1H1093.8z M1093.8,403.6V109.7h110.8v293.9H1093.8z"/>
	<path d="M1474.5,125.5c28.2,15,42.3,39.4,42.3,73.2v114.7c0,6.3,1.5,11.5,4.4,15.6c3,4.1,7.4,6.1,13.4,6.1h20v64
		c-1.1,0.7-4,1.9-8.6,3.6c-4.6,1.7-11.2,3.3-19.8,5c-8.5,1.7-18.4,2.5-29.5,2.5c-21.5,0-39.2-3.3-53.2-9.7
		c-13.9-6.5-23.5-15.5-28.7-27c-14.1,11.1-29.9,20-47.3,26.7c-17.4,6.7-37.9,10-61.2,10c-69,0-103.5-27.5-103.5-82.4
		c0-28.6,7.7-50.4,23.1-65.4c15.4-15,37.6-25.3,66.5-30.9c28.9-5.6,66.8-8.4,113.6-8.4v-14.5c0-11.5-4-20.2-12-26.2
		c-8-5.9-18.3-8.9-30.9-8.9c-11.5,0-21.4,2-29.8,6.1c-8.3,4.1-12.5,10.6-12.5,19.5v2.2h-109.1c-0.4-1.8-0.6-4.4-0.6-7.8
		c0-27.8,13.3-49.9,39.8-66.2c26.5-16.3,64.5-24.5,113.8-24.5C1409.8,103,1446.3,110.5,1474.5,125.5z M1336.2,285.8
		c-15,6.9-22.5,16.1-22.5,27.6c0,18.6,12.6,27.8,37.8,27.8c14.5,0,27.2-3.9,38.1-11.7c10.9-7.8,16.4-17.4,16.4-28.9v-25.1
		C1374.5,275.5,1351.2,279,1336.2,285.8z"/>
	<path d="M1539.1,75.1V0h110.8v75.1H1539.1z M1539.1,403.6V109.7h110.8v293.9H1539.1z"/>
	<path d="M1919.8,125.5c28.2,15,42.3,39.4,42.3,73.2v114.7c0,6.3,1.5,11.5,4.4,15.6c3,4.1,7.4,6.1,13.4,6.1h20v64
		c-1.1,0.7-4,1.9-8.6,3.6c-4.6,1.7-11.2,3.3-19.8,5c-8.5,1.7-18.4,2.5-29.5,2.5c-21.5,0-39.2-3.3-53.2-9.7
		c-13.9-6.5-23.5-15.5-28.7-27c-14.1,11.1-29.9,20-47.3,26.7c-17.4,6.7-37.9,10-61.2,10c-69,0-103.5-27.5-103.5-82.4
		c0-28.6,7.7-50.4,23.1-65.4c15.4-15,37.6-25.3,66.5-30.9c28.9-5.6,66.8-8.4,113.6-8.4v-14.5c0-11.5-4-20.2-12-26.2
		c-8-5.9-18.3-8.9-30.9-8.9c-11.5,0-21.4,2-29.8,6.1c-8.3,4.1-12.5,10.6-12.5,19.5v2.2h-109.1c-0.4-1.8-0.6-4.4-0.6-7.8
		c0-27.8,13.3-49.9,39.8-66.2c26.5-16.3,64.5-24.5,113.8-24.5C1855.1,103,1891.6,110.5,1919.8,125.5z M1781.5,285.8
		c-15,6.9-22.5,16.1-22.5,27.6c0,18.6,12.6,27.8,37.8,27.8c14.5,0,27.2-3.9,38.1-11.7c10.9-7.8,16.4-17.4,16.4-28.9v-25.1
		C1819.8,275.5,1796.5,279,1781.5,285.8z"/>
</g>
</svg>
